<mxfile host="app.diagrams.net" modified="2021-10-26T13:11:46.274Z" agent="5.0 (Windows NT 10.0; Win64; x64) AppleWebKit/537.36 (KHTML, like Gecko) Chrome/95.0.4638.54 Safari/537.36" etag="VPeQLKS6DgaWMLT586fD" version="15.5.1" type="github">
  <diagram id="tLs2YXAMhAHUcqEWoLEB" name="Page-1">
    <mxGraphModel dx="1422" dy="794" grid="1" gridSize="10" guides="1" tooltips="1" connect="1" arrows="1" fold="1" page="1" pageScale="1" pageWidth="850" pageHeight="1100" math="0" shadow="0">
      <root>
        <mxCell id="0" />
        <mxCell id="1" parent="0" />
        <mxCell id="tuxrYn9izzOhArjeq18M-12" value="UI" style="swimlane;" vertex="1" parent="1">
          <mxGeometry x="460" y="150" width="360" height="220" as="geometry" />
        </mxCell>
        <mxCell id="tuxrYn9izzOhArjeq18M-13" value="Btn" style="rounded=0;whiteSpace=wrap;html=1;" vertex="1" parent="tuxrYn9izzOhArjeq18M-12">
          <mxGeometry x="50" y="50" width="80" height="30" as="geometry" />
        </mxCell>
        <mxCell id="tuxrYn9izzOhArjeq18M-15" style="edgeStyle=orthogonalEdgeStyle;rounded=0;orthogonalLoop=1;jettySize=auto;html=1;exitX=0.5;exitY=1;exitDx=0;exitDy=0;" edge="1" parent="tuxrYn9izzOhArjeq18M-12" source="tuxrYn9izzOhArjeq18M-13" target="tuxrYn9izzOhArjeq18M-13">
          <mxGeometry relative="1" as="geometry" />
        </mxCell>
        <mxCell id="tuxrYn9izzOhArjeq18M-16" value="Btn" style="rounded=0;whiteSpace=wrap;html=1;" vertex="1" parent="tuxrYn9izzOhArjeq18M-12">
          <mxGeometry x="50" y="95" width="80" height="30" as="geometry" />
        </mxCell>
        <mxCell id="tuxrYn9izzOhArjeq18M-17" value="Btn" style="rounded=0;whiteSpace=wrap;html=1;" vertex="1" parent="tuxrYn9izzOhArjeq18M-12">
          <mxGeometry x="50" y="140" width="80" height="30" as="geometry" />
        </mxCell>
        <mxCell id="tuxrYn9izzOhArjeq18M-3" value="Material-UI" style="swimlane;" vertex="1" parent="1">
          <mxGeometry x="40" y="20" width="200" height="200" as="geometry">
            <mxRectangle x="40" y="20" width="90" height="23" as="alternateBounds" />
          </mxGeometry>
        </mxCell>
        <mxCell id="tuxrYn9izzOhArjeq18M-1" value="Button" style="rounded=0;whiteSpace=wrap;html=1;" vertex="1" parent="tuxrYn9izzOhArjeq18M-3">
          <mxGeometry x="35" y="50" width="130" height="30" as="geometry" />
        </mxCell>
        <mxCell id="tuxrYn9izzOhArjeq18M-2" style="edgeStyle=orthogonalEdgeStyle;rounded=0;orthogonalLoop=1;jettySize=auto;html=1;exitX=0.5;exitY=1;exitDx=0;exitDy=0;" edge="1" parent="tuxrYn9izzOhArjeq18M-3" source="tuxrYn9izzOhArjeq18M-1" target="tuxrYn9izzOhArjeq18M-1">
          <mxGeometry relative="1" as="geometry" />
        </mxCell>
        <mxCell id="tuxrYn9izzOhArjeq18M-23" style="edgeStyle=orthogonalEdgeStyle;rounded=0;orthogonalLoop=1;jettySize=auto;html=1;exitX=0.25;exitY=1;exitDx=0;exitDy=0;entryX=0;entryY=0.5;entryDx=0;entryDy=0;" edge="1" parent="1" source="tuxrYn9izzOhArjeq18M-9" target="tuxrYn9izzOhArjeq18M-17">
          <mxGeometry relative="1" as="geometry" />
        </mxCell>
        <mxCell id="tuxrYn9izzOhArjeq18M-24" style="edgeStyle=orthogonalEdgeStyle;rounded=0;orthogonalLoop=1;jettySize=auto;html=1;exitX=0.75;exitY=1;exitDx=0;exitDy=0;entryX=0;entryY=0.5;entryDx=0;entryDy=0;" edge="1" parent="1" source="tuxrYn9izzOhArjeq18M-9" target="tuxrYn9izzOhArjeq18M-13">
          <mxGeometry relative="1" as="geometry" />
        </mxCell>
        <mxCell id="tuxrYn9izzOhArjeq18M-25" style="edgeStyle=orthogonalEdgeStyle;rounded=0;orthogonalLoop=1;jettySize=auto;html=1;exitX=0.5;exitY=1;exitDx=0;exitDy=0;entryX=0;entryY=0.5;entryDx=0;entryDy=0;" edge="1" parent="1" source="tuxrYn9izzOhArjeq18M-9" target="tuxrYn9izzOhArjeq18M-16">
          <mxGeometry relative="1" as="geometry" />
        </mxCell>
        <mxCell id="tuxrYn9izzOhArjeq18M-9" value="Abstraction Button" style="rounded=1;whiteSpace=wrap;html=1;" vertex="1" parent="1">
          <mxGeometry x="310" y="62.5" width="120" height="45" as="geometry" />
        </mxCell>
        <mxCell id="tuxrYn9izzOhArjeq18M-10" style="edgeStyle=orthogonalEdgeStyle;rounded=0;orthogonalLoop=1;jettySize=auto;html=1;exitX=1;exitY=0.5;exitDx=0;exitDy=0;entryX=0;entryY=0.5;entryDx=0;entryDy=0;" edge="1" parent="1" source="tuxrYn9izzOhArjeq18M-1" target="tuxrYn9izzOhArjeq18M-9">
          <mxGeometry relative="1" as="geometry" />
        </mxCell>
      </root>
    </mxGraphModel>
  </diagram>
</mxfile>
